<svg id="visual" viewBox="0 0 960 540" width="960" height="540" xmlns="http://www.w3.org/2000/svg" xmlns:xlink="http://www.w3.org/1999/xlink" version="1.1"><rect x="0" y="0" width="960" height="540" fill="#ECDAFC"></rect><defs><linearGradient id="grad1_0" x1="43.8%" y1="0%" x2="100%" y2="100%"><stop offset="14.444444444444446%" stop-color="#6600ff" stop-opacity="1"></stop><stop offset="85.55555555555554%" stop-color="#6600ff" stop-opacity="1"></stop></linearGradient></defs><defs><linearGradient id="grad1_1" x1="43.8%" y1="0%" x2="100%" y2="100%"><stop offset="14.444444444444446%" stop-color="#6600ff" stop-opacity="1"></stop><stop offset="85.55555555555554%" stop-color="#8336ff" stop-opacity="1"></stop></linearGradient></defs><defs><linearGradient id="grad1_2" x1="43.8%" y1="0%" x2="100%" y2="100%"><stop offset="14.444444444444446%" stop-color="#9b55ff" stop-opacity="1"></stop><stop offset="85.55555555555554%" stop-color="#8336ff" stop-opacity="1"></stop></linearGradient></defs><defs><linearGradient id="grad1_3" x1="43.8%" y1="0%" x2="100%" y2="100%"><stop offset="14.444444444444446%" stop-color="#9b55ff" stop-opacity="1"></stop><stop offset="85.55555555555554%" stop-color="#af71ff" stop-opacity="1"></stop></linearGradient></defs><defs><linearGradient id="grad1_4" x1="43.8%" y1="0%" x2="100%" y2="100%"><stop offset="14.444444444444446%" stop-color="#c18bff" stop-opacity="1"></stop><stop offset="85.55555555555554%" stop-color="#af71ff" stop-opacity="1"></stop></linearGradient></defs><defs><linearGradient id="grad1_5" x1="43.8%" y1="0%" x2="100%" y2="100%"><stop offset="14.444444444444446%" stop-color="#c18bff" stop-opacity="1"></stop><stop offset="85.55555555555554%" stop-color="#d1a6fe" stop-opacity="1"></stop></linearGradient></defs><defs><linearGradient id="grad1_6" x1="43.8%" y1="0%" x2="100%" y2="100%"><stop offset="14.444444444444446%" stop-color="#dfc0fd" stop-opacity="1"></stop><stop offset="85.55555555555554%" stop-color="#d1a6fe" stop-opacity="1"></stop></linearGradient></defs><defs><linearGradient id="grad1_7" x1="43.8%" y1="0%" x2="100%" y2="100%"><stop offset="14.444444444444446%" stop-color="#dfc0fd" stop-opacity="1"></stop><stop offset="85.55555555555554%" stop-color="#ecdafc" stop-opacity="1"></stop></linearGradient></defs><defs><linearGradient id="grad2_0" x1="0%" y1="0%" x2="56.3%" y2="100%"><stop offset="14.444444444444446%" stop-color="#6600ff" stop-opacity="1"></stop><stop offset="85.55555555555554%" stop-color="#6600ff" stop-opacity="1"></stop></linearGradient></defs><defs><linearGradient id="grad2_1" x1="0%" y1="0%" x2="56.3%" y2="100%"><stop offset="14.444444444444446%" stop-color="#8336ff" stop-opacity="1"></stop><stop offset="85.55555555555554%" stop-color="#6600ff" stop-opacity="1"></stop></linearGradient></defs><defs><linearGradient id="grad2_2" x1="0%" y1="0%" x2="56.3%" y2="100%"><stop offset="14.444444444444446%" stop-color="#8336ff" stop-opacity="1"></stop><stop offset="85.55555555555554%" stop-color="#9b55ff" stop-opacity="1"></stop></linearGradient></defs><defs><linearGradient id="grad2_3" x1="0%" y1="0%" x2="56.3%" y2="100%"><stop offset="14.444444444444446%" stop-color="#af71ff" stop-opacity="1"></stop><stop offset="85.55555555555554%" stop-color="#9b55ff" stop-opacity="1"></stop></linearGradient></defs><defs><linearGradient id="grad2_4" x1="0%" y1="0%" x2="56.3%" y2="100%"><stop offset="14.444444444444446%" stop-color="#af71ff" stop-opacity="1"></stop><stop offset="85.55555555555554%" stop-color="#c18bff" stop-opacity="1"></stop></linearGradient></defs><defs><linearGradient id="grad2_5" x1="0%" y1="0%" x2="56.3%" y2="100%"><stop offset="14.444444444444446%" stop-color="#d1a6fe" stop-opacity="1"></stop><stop offset="85.55555555555554%" stop-color="#c18bff" stop-opacity="1"></stop></linearGradient></defs><defs><linearGradient id="grad2_6" x1="0%" y1="0%" x2="56.3%" y2="100%"><stop offset="14.444444444444446%" stop-color="#d1a6fe" stop-opacity="1"></stop><stop offset="85.55555555555554%" stop-color="#dfc0fd" stop-opacity="1"></stop></linearGradient></defs><defs><linearGradient id="grad2_7" x1="0%" y1="0%" x2="56.3%" y2="100%"><stop offset="14.444444444444446%" stop-color="#ecdafc" stop-opacity="1"></stop><stop offset="85.55555555555554%" stop-color="#dfc0fd" stop-opacity="1"></stop></linearGradient></defs><g transform="translate(960, 0)"><path d="M0 243C-14.9 233.2 -29.9 223.3 -42.7 214.8C-55.6 206.3 -66.3 199.1 -82.3 198.6C-98.2 198.2 -119.4 204.5 -132.8 198.7C-146.2 192.9 -151.8 174.9 -163.3 163.3C-174.9 151.8 -192.4 146.6 -202 135C-211.7 123.4 -213.4 105.4 -216.2 89.5C-219 73.7 -222.9 59.8 -227.5 45.3C-232.2 30.7 -237.6 15.3 -243 0L0 0Z" fill="#e6cdfd"></path><path d="M0 212.6C-13.1 204 -26.1 195.4 -37.4 187.9C-48.6 180.5 -58 174.2 -72 173.8C-86 173.4 -104.5 179 -116.2 173.9C-127.9 168.8 -132.8 153.1 -142.9 142.9C-153 132.8 -168.4 128.3 -176.8 118.1C-185.2 108 -186.7 92.3 -189.2 78.4C-191.6 64.4 -195 52.4 -199.1 39.6C-203.2 26.8 -207.9 13.4 -212.6 0L0 0Z" fill="#d8b3fe"></path><path d="M0 182.3C-11.2 174.9 -22.4 167.5 -32 161.1C-41.7 154.7 -49.7 149.3 -61.7 149C-73.7 148.7 -89.5 153.4 -99.6 149C-109.6 144.7 -113.8 131.2 -122.5 122.5C-131.2 113.8 -144.3 109.9 -151.5 101.3C-158.7 92.6 -160 79.1 -162.1 67.2C-164.2 55.2 -167.2 44.9 -170.7 33.9C-174.1 23 -178.2 11.5 -182.2 0L0 0Z" fill="#c998fe"></path><path d="M0 151.9C-9.3 145.7 -18.7 139.6 -26.7 134.2C-34.7 128.9 -41.5 124.4 -51.4 124.1C-61.4 123.9 -74.6 127.8 -83 124.2C-91.4 120.6 -94.9 109.3 -102.1 102.1C-109.3 94.9 -120.3 91.6 -126.3 84.4C-132.3 77.1 -133.4 65.9 -135.1 56C-136.9 46 -139.3 37.4 -142.2 28.3C-145.1 19.2 -148.5 9.6 -151.9 0L0 0Z" fill="#b87eff"></path><path d="M0 121.5C-7.5 116.6 -14.9 111.7 -21.4 107.4C-27.8 103.1 -33.2 99.5 -41.1 99.3C-49.1 99.1 -59.7 102.3 -66.4 99.4C-73.1 96.5 -75.9 87.5 -81.7 81.7C-87.5 75.9 -96.2 73.3 -101 67.5C-105.8 61.7 -106.7 52.7 -108.1 44.8C-109.5 36.8 -111.4 29.9 -113.8 22.6C-116.1 15.3 -118.8 7.7 -121.5 0L0 0Z" fill="#a563ff"></path><path d="M0 91.1C-5.6 87.4 -11.2 83.7 -16 80.5C-20.8 77.4 -24.9 74.6 -30.9 74.5C-36.8 74.3 -44.8 76.7 -49.8 74.5C-54.8 72.3 -56.9 65.6 -61.3 61.3C-65.6 56.9 -72.2 55 -75.8 50.6C-79.4 46.3 -80 39.5 -81.1 33.6C-82.1 27.6 -83.6 22.4 -85.3 17C-87.1 11.5 -89.1 5.8 -91.1 0L0 0Z" fill="#9046ff"></path><path d="M0 60.8C-3.7 58.3 -7.5 55.8 -10.7 53.7C-13.9 51.6 -16.6 49.8 -20.6 49.7C-24.6 49.6 -29.8 51.1 -33.2 49.7C-36.5 48.2 -37.9 43.7 -40.8 40.8C-43.7 37.9 -48.1 36.6 -50.5 33.8C-52.9 30.9 -53.3 26.4 -54 22.4C-54.7 18.4 -55.7 15 -56.9 11.3C-58 7.7 -59.4 3.8 -60.7 0L0 0Z" fill="#7623ff"></path><path d="M0 30.4C-1.9 29.1 -3.7 27.9 -5.3 26.8C-6.9 25.8 -8.3 24.9 -10.3 24.8C-12.3 24.8 -14.9 25.6 -16.6 24.8C-18.3 24.1 -19 21.9 -20.4 20.4C-21.9 19 -24.1 18.3 -25.3 16.9C-26.5 15.4 -26.7 13.2 -27 11.2C-27.4 9.2 -27.9 7.5 -28.4 5.7C-29 3.8 -29.7 1.9 -30.4 0L0 0Z" fill="#6600ff"></path></g><g transform="translate(0, 540)"><path d="M0 -243C16 -240.9 32 -238.8 45.8 -230.5C59.7 -222.1 71.5 -207.5 80.7 -194.9C90 -182.3 96.6 -171.8 114.4 -171.3C132.3 -170.8 161.2 -180.4 171.8 -171.8C182.4 -163.2 174.6 -136.5 180.4 -120.6C186.2 -104.7 205.6 -99.6 213.4 -88.4C221.3 -77.2 217.7 -59.7 220.7 -43.9C223.7 -28.1 233.3 -14.1 243 0L0 0Z" fill="#e6cdfd"></path><path d="M0 -212.6C14 -210.8 28 -209 40.1 -201.7C52.3 -194.4 62.6 -181.6 70.7 -170.6C78.7 -159.6 84.6 -150.3 100.1 -149.9C115.7 -149.4 141.1 -157.9 150.3 -150.3C159.6 -142.8 152.8 -119.4 157.9 -105.5C162.9 -91.6 179.9 -87.2 186.7 -77.3C193.6 -67.5 190.5 -52.2 193.1 -38.4C195.7 -24.6 204.2 -12.3 212.6 0L0 0Z" fill="#d8b3fe"></path><path d="M0 -182.2C12 -180.7 24 -179.1 34.4 -172.9C44.8 -166.6 53.6 -155.6 60.6 -146.2C67.5 -136.8 72.5 -128.8 85.8 -128.5C99.2 -128.1 120.9 -135.3 128.9 -128.9C136.8 -122.4 131 -102.3 135.3 -90.4C139.7 -78.5 154.2 -74.7 160.1 -66.3C166 -57.9 163.2 -44.8 165.5 -32.9C167.8 -21.1 175 -10.5 182.3 0L0 0Z" fill="#c998fe"></path><path d="M0 -151.9C10 -150.6 20 -149.3 28.7 -144.1C37.3 -138.8 44.7 -129.7 50.5 -121.8C56.2 -114 60.4 -107.4 71.5 -107.1C82.7 -106.7 100.8 -112.8 107.4 -107.4C114 -102 109.2 -85.3 112.8 -75.3C116.4 -65.4 128.5 -62.3 133.4 -55.2C138.3 -48.2 136 -37.3 137.9 -27.4C139.8 -17.6 145.8 -8.8 151.9 0L0 0Z" fill="#b87eff"></path><path d="M0 -121.5C8 -120.5 16 -119.4 22.9 -115.2C29.9 -111.1 35.8 -103.8 40.4 -97.5C45 -91.2 48.3 -85.9 57.2 -85.6C66.1 -85.4 80.6 -90.2 85.9 -85.9C91.2 -81.6 87.3 -68.2 90.2 -60.3C93.1 -52.3 102.8 -49.8 106.7 -44.2C110.6 -38.6 108.8 -29.8 110.3 -21.9C111.8 -14.1 116.7 -7 121.5 0L0 0Z" fill="#a563ff"></path><path d="M0 -91.1C6 -90.3 12 -89.6 17.2 -86.4C22.4 -83.3 26.8 -77.8 30.3 -73.1C33.7 -68.4 36.2 -64.4 42.9 -64.2C49.6 -64 60.5 -67.7 64.4 -64.4C68.4 -61.2 65.5 -51.2 67.7 -45.2C69.8 -39.2 77.1 -37.4 80 -33.1C83 -28.9 81.6 -22.4 82.8 -16.5C83.9 -10.5 87.5 -5.3 91.1 0L0 0Z" fill="#9046ff"></path><path d="M0 -60.7C4 -60.2 8 -59.7 11.5 -57.6C14.9 -55.5 17.9 -51.9 20.2 -48.7C22.5 -45.6 24.2 -42.9 28.6 -42.8C33.1 -42.7 40.3 -45.1 43 -43C45.6 -40.8 43.7 -34.1 45.1 -30.1C46.6 -26.2 51.4 -24.9 53.4 -22.1C55.3 -19.3 54.4 -14.9 55.2 -11C55.9 -7 58.3 -3.5 60.8 0L0 0Z" fill="#7623ff"></path><path d="M0 -30.4C2 -30.1 4 -29.9 5.7 -28.8C7.5 -27.8 8.9 -25.9 10.1 -24.4C11.2 -22.8 12.1 -21.5 14.3 -21.4C16.5 -21.3 20.2 -22.6 21.5 -21.5C22.8 -20.4 21.8 -17.1 22.6 -15.1C23.3 -13.1 25.7 -12.5 26.7 -11C27.7 -9.6 27.2 -7.5 27.6 -5.5C28 -3.5 29.2 -1.8 30.4 0L0 0Z" fill="#6600ff"></path></g></svg>